<svg xmlns="http://www.w3.org/2000/svg" viewBox="0 0 160 160" version="1.1" xmlns:xlink="http://www.w3.org/1999/xlink" id="svg_null"><defs><rect id="10fdacd0-3df8-4c90-8df8-409e81785fdc" x="0" y="0" width="128" height="64"/></defs><g id="root" stroke="none" stroke-width="1" fill="none" fill-rule="evenodd"><rect id="background" fill="#FFF" x="0" y="0" width="160" height="160"/><g id="group" transform="translate(25.000000, 42.000000)"><mask id="da80ce61-c8eb-46e4-a395-f9c81be25d61" fill="#fff"><use xlink:href="#10fdacd0-3df8-4c90-8df8-409e81785fdc"/></mask><use id="shape.secondary" fill="#bfe9db" xlink:href="#10fdacd0-3df8-4c90-8df8-409e81785fdc"/><path d="M120.707 -7l70.71 70.71l-0.706 0.708l-70.711 -70.71l0.707 -0.708zm-4 0l70.71 70.71l-0.706 0.708l-70.711 -70.71l0.707 -0.708zm-4 0l70.71 70.71l-0.706 0.708l-70.711 -70.71l0.707 -0.708zm-4 0l70.71 70.71l-0.706 0.708l-70.711 -70.71l0.707 -0.708zm-4 0l70.71 70.71l-0.706 0.708l-70.711 -70.71l0.707 -0.708zm-4 0l70.71 70.71l-0.706 0.708l-70.711 -70.71l0.707 -0.708zm-4 0l70.71 70.71l-0.706 0.708l-70.711 -70.71l0.707 -0.708zm-4 0l70.71 70.71l-0.706 0.708l-70.711 -70.71l0.707 -0.708zm-4 0l70.71 70.71l-0.706 0.708l-70.711 -70.71l0.707 -0.708zm-4 0l70.71 70.71l-0.706 0.708l-70.711 -70.71l0.707 -0.708zm-4 0l70.71 70.71l-0.706 0.708l-70.711 -70.71l0.707 -0.708zm-4 0l70.71 70.71l-0.706 0.708l-70.711 -70.71l0.707 -0.708zm-4 0l70.71 70.71l-0.706 0.708l-70.711 -70.71l0.707 -0.708zm-4 0l70.71 70.71l-0.706 0.708l-70.711 -70.71l0.707 -0.708zm-4 0l70.71 70.71l-0.706 0.708l-70.711 -70.71l0.707 -0.708zm-4 0l70.71 70.71l-0.706 0.708l-70.711 -70.71l0.707 -0.708zm-4 0l70.71 70.71l-0.706 0.708l-70.711 -70.71l0.707 -0.708zm-4 0l70.71 70.71l-0.706 0.708l-70.711 -70.71l0.707 -0.708zm-4 0l70.71 70.71l-0.706 0.708l-70.711 -70.71l0.707 -0.708zm-4 0l70.71 70.71l-0.706 0.708l-70.711 -70.71l0.707 -0.708zm-4 0l70.71 70.71l-0.706 0.708l-70.711 -70.71l0.707 -0.708zm-4 0l70.71 70.71l-0.706 0.708l-70.711 -70.71l0.707 -0.708zm-4 0l70.71 70.71l-0.706 0.708l-70.711 -70.71l0.707 -0.708zm-4 0l70.71 70.71l-0.706 0.708l-70.711 -70.71l0.707 -0.708zm-4 0l70.71 70.71l-0.706 0.708l-70.711 -70.71l0.707 -0.708zm-4 0l70.71 70.71l-0.706 0.708l-70.711 -70.71l0.707 -0.708zm-4 0l70.71 70.71l-0.706 0.708l-70.711 -70.71l0.707 -0.708zm-4 0l70.71 70.71l-0.706 0.708l-70.711 -70.71l0.707 -0.708zm-4 0l70.71 70.71l-0.706 0.708l-70.711 -70.71l0.707 -0.708zm-4 0l70.71 70.71l-0.706 0.708l-70.711 -70.71l0.707 -0.708zm-4 0l70.71 70.71l-0.706 0.708l-70.711 -70.71l0.707 -0.708zm-4 0l70.71 70.71l-0.706 0.708l-70.711 -70.71l0.707 -0.708zm-4 0l70.71 70.71l-0.706 0.708l-70.711 -70.71l0.707 -0.708zm-4 0l70.71 70.71l-0.706 0.708l-70.711 -70.71l0.707 -0.708zm-4 0l70.71 70.71l-0.706 0.708l-70.711 -70.71l0.707 -0.708zm-4 0l70.71 70.71l-0.706 0.708l-70.711 -70.71l0.707 -0.708zm-4 0l70.71 70.71l-0.706 0.708l-70.711 -70.71l0.707 -0.708zm-4 0l70.71 70.71l-0.706 0.708l-70.711 -70.71l0.707 -0.708zm-4 0l70.71 70.71l-0.706 0.708l-70.711 -70.71l0.707 -0.708zm-4 0l70.71 70.71l-0.706 0.708l-70.711 -70.71l0.707 -0.708z" id="shape" fill="#000" mask="url(#da80ce61-c8eb-46e4-a395-f9c81be25d61)"/></g><rect id="shape.primary" fill="#e1f6f4" x="11" y="56" width="128" height="64"/><rect id="shape" fill="#FFF" x="28" y="76" width="96" height="24"/><g id="Group" transform="translate(32.000000, 77.000000)"><rect id="Rectangle-56" x="0" y="0" width="88" height="22"/><text id="headerText" font-family="Arima Madurai" font-size="18" font-weight="800" line-spacing="18" fill="#000" data-text-alignment="c" font-style="normal"><tspan x="4.4725189208984375" y="16">EazyMart</tspan></text></g></g></svg>
